<?xml version="1.0" encoding="utf-8"?>
<!-- Generator: Adobe Illustrator 24.1.2, SVG Export Plug-In . SVG Version: 6.00 Build 0)  -->
<svg version="1.1" id="Layer_1" xmlns="http://www.w3.org/2000/svg" xmlns:xlink="http://www.w3.org/1999/xlink" x="0px" y="0px"
	 viewBox="0 0 305.1 297" style="enable-background:new 0 0 305.1 297;" xml:space="preserve">
<style type="text/css">
	.st0{fill:none;stroke:#FFFFFF;stroke-width:10;stroke-miterlimit:10;}
	.st1{fill:none;stroke:#FFFFFF;stroke-width:11.7574;stroke-miterlimit:10;}
</style>
<g>
	<g>
		<path class="st0" d="M289.3,63.9l-92.5-20.6c-8.2-15.9-24.8-26.8-43.9-26.8c-19.1,0-35.7,10.9-43.9,26.7L15.4,63.9
			C9,65.3,3.6,71.9,3.6,78.5V87c0,6.6,5.7,12.5,12.3,12.5h4.7v164h50v-164h45.9c9,9.8,22,16,36.4,16c14.4,0,27.4-6.2,36.4-16h45.2
			v164h50.1v-164h4.8c6.6,0,11.2-5.9,11.2-12.5v-8.5C300.6,71.9,295.7,65.3,289.3,63.9z M160.3,93.8c0-11.2-7.4-22-7.4-22
			s-7.4,10.8-7.4,22c-18.8,0-22.5-18.6-15.1-29.8c4-6,12.3-12.8,12.1-24.3c0-2.7,2.8-4.4,5.2-3.2c3,1.5,6.6,3.9,8.9,7.4
			c7.9,11.9,4.2,23.5,4,23.9c0.3-0.2,5.2-3,9.4-8c1.7-2,4.9-1.6,6,0.8C181.1,71.9,182.3,93.8,160.3,93.8z M210.6,230.6v-70
			c0-6.6-5.1-12-11.7-12h-30.3v-17h-33v17h-28.7c-6.6,0-12.3,5.4-12.3,12v70c-4,0.1-8,3.8-8,8.2v0.5c0,4.5,4,8.1,8,8.2v16h16v-16h84
			v16h16v-16c5-0.1,8-3.8,8-8.2v-0.5C218.6,234.3,215.6,230.7,210.6,230.6z M160.6,165.5h33v33h-33V165.5z M110.6,165.5h33v33h-33
			V165.5z M111.7,231.1c-4.6,0-8.3-3.8-8.3-8.3c0-4.6,3.7-8.3,8.3-8.3c4.6,0,8.3,3.7,8.3,8.3C120,227.4,116.3,231.1,111.7,231.1z
			 M169.6,230.5h-33v-16h33V230.5z M193.7,231c-4.6,0-8.3-3.7-8.3-8.3c0-4.6,3.7-8.3,8.3-8.3c4.6,0,8.3,3.7,8.3,8.3
			C202,227.3,198.2,231,193.7,231z"/>
		<path class="st1" d="M300.6,274.6v1.4c0,6.1-3.3,11.1-7.7,11.1h-281c-4.4,0-8.3-5-8.3-11.1v-1.4c0-6.1,3.9-11.1,8.3-11.1h281
			C297.4,263.5,300.6,268.5,300.6,274.6z"/>
	</g>
</g>
</svg>
