<?xml version="1.0" encoding="utf-8"?>
<!-- Generator: Adobe Illustrator 24.1.2, SVG Export Plug-In . SVG Version: 6.00 Build 0)  -->
<svg version="1.1" id="Layer_1" xmlns="http://www.w3.org/2000/svg" xmlns:xlink="http://www.w3.org/1999/xlink" x="0px" y="0px"
	 viewBox="0 0 100 100" style="enable-background:new 0 0 100 100;" xml:space="preserve">
<style type="text/css">
	.st0{fill:#FFFFFF;}
</style>
<g>
	<path class="st0" d="M60,43H40c-1.1,0-2,0.9-2,2v10c0,1.1,0.9,2,2,2h20c1.1,0,2-0.9,2-2V45C62,43.9,61.1,43,60,43z M58,53H42v-6h16
		V53z"/>
	<path class="st0" d="M44.1,31.9C44.5,34.8,47,37,50,37c3,0,5.5-2.2,5.9-5.1C58.8,31.5,61,29,61,26s-2.2-5.5-5.1-5.9
		C55.5,17.2,53,15,50,15c-3,0-5.5,2.2-5.9,5.1C41.2,20.5,39,23,39,26S41.2,31.5,44.1,31.9z M45,24h1c1.1,0,2-0.9,2-2v-1
		c0-1.1,0.9-2,2-2c1.1,0,2,0.9,2,2v1c0,1.1,0.9,2,2,2h1c1.1,0,2,0.9,2,2s-0.9,2-2,2h-1c-1.1,0-2,0.9-2,2v1c0,1.1-0.9,2-2,2
		c-1.1,0-2-0.9-2-2v-1c0-1.1-0.9-2-2-2h-1c-1.1,0-2-0.9-2-2S43.9,24,45,24z"/>
	<path class="st0" d="M80,85c1.1,0,2-0.9,2-2v-6c0-1.1-0.9-2-2-2c-1.1,0-2,0.9-2,2v6C78,84.1,78.9,85,80,85z"/>
	<path class="st0" d="M80,69c1.1,0,2-0.9,2-2v-6c0-1.1-0.9-2-2-2c-1.1,0-2,0.9-2,2v6C78,68.1,78.9,69,80,69z"/>
	<path class="st0" d="M86,39H72V11c0-3.3-2.7-6-6-6H34c-3.3,0-6,2.7-6,6v28H14c-3.3,0-6,2.7-6,6v44c0,3.3,2.7,6,6,6h72
		c3.3,0,6-2.7,6-6V45C92,41.7,89.3,39,86,39z M28,91H14c-1.1,0-2-0.9-2-2V53h16V91z M28,49H12v-4c0-1.1,0.9-2,2-2h14V49z M58,91H42
		v-6h16V91z M42,81V67h6v14H42z M58,81h-6V67h6V81z M68,91h-6V65c0-1.1-0.9-2-2-2H40c-1.1,0-2,0.9-2,2v26h-6V11c0-1.1,0.9-2,2-2h32
		c1.1,0,2,0.9,2,2V91z M88,89c0,1.1-0.9,2-2,2H72V53h16V89z M88,49H72v-6h14c1.1,0,2,0.9,2,2V49z"/>
	<path class="st0" d="M20,85c1.1,0,2-0.9,2-2v-6c0-1.1-0.9-2-2-2c-1.1,0-2,0.9-2,2v6C18,84.1,18.9,85,20,85z"/>
	<path class="st0" d="M20,69c1.1,0,2-0.9,2-2v-6c0-1.1-0.9-2-2-2c-1.1,0-2,0.9-2,2v6C18,68.1,18.9,69,20,69z"/>
</g>
</svg>
