<?xml version="1.0" encoding="utf-8"?>
<!-- Generator: Adobe Illustrator 24.1.2, SVG Export Plug-In . SVG Version: 6.00 Build 0)  -->
<svg version="1.1" id="Layer_1" focusable="false" xmlns="http://www.w3.org/2000/svg" xmlns:xlink="http://www.w3.org/1999/xlink"
	 x="0px" y="0px" viewBox="0 0 540 528" style="enable-background:new 0 0 540 528;" xml:space="preserve">
<style type="text/css">
	.st0{fill:none;stroke:#FFFFFF;stroke-width:17;stroke-miterlimit:10;}
</style>
<path class="st0" d="M508.1,103.3L278.3,15c-7.1-2.7-14.9-2.7-22,0L26.5,103.3c-6.1,2.3-10.2,8.1-10.2,14.7v36.2
	c0,8.7,7,15.7,15.7,15.7h470.6c8.7,0,15.7-7,15.7-15.7V118C518.3,111.5,514.2,105.6,508.1,103.3z M79,201.2v156.9H63.4
	c-8.7,0-15.7,7-15.7,15.7v47.1H487v-47.1c0-8.7-7-15.7-15.7-15.7h-15.7V201.2h-62.8v156.9h-94.1V201.2h-62.8v156.9h-94.1V201.2H79z
	 M502.6,452.3H32c-8.7,0-15.7,7-15.7,15.7v31.4c0,8.7,7,15.7,15.7,15.7h470.6c8.7,0,15.7-7,15.7-15.7V468
	C518.3,459.3,511.3,452.3,502.6,452.3z"/>
</svg>
