<?xml version="1.0" encoding="utf-8"?>
<!-- Generator: Adobe Illustrator 24.1.2, SVG Export Plug-In . SVG Version: 6.00 Build 0)  -->
<svg version="1.1" id="Layer_1" xmlns="http://www.w3.org/2000/svg" xmlns:xlink="http://www.w3.org/1999/xlink" x="0px" y="0px"
	 viewBox="0 0 100 100" style="enable-background:new 0 0 100 100;" xml:space="preserve">
<style type="text/css">
	.st0{fill:#FFFFFF;}
</style>
<path class="st0" d="M96,29v-3c0-1.7-1.3-3-3-3H76v-6.4c2.3-0.8,4-3,4-5.6V8c0-1.7-1.3-3-3-3H23c-1.7,0-3,1.3-3,3v3
	c0,2.6,1.7,4.8,4,5.6V23H7c-1.7,0-3,1.3-3,3v3c0,2.6,1.7,4.8,4,5.6V91H7c-1.1,0-2,0.9-2,2s0.9,2,2,2h86c1.1,0,2-0.9,2-2s-0.9-2-2-2
	h-1V34.6C94.3,33.8,96,31.6,96,29z M24,39h-6c-1.1,0-2,0.9-2,2s0.9,2,2,2h6v4h-6c-1.1,0-2,0.9-2,2s0.9,2,2,2h6v4h-6
	c-1.1,0-2,0.9-2,2s0.9,2,2,2h6v4h-6c-1.1,0-2,0.9-2,2s0.9,2,2,2h6v24H12V35h12V39z M24,31H10c-1.1,0-2-0.9-2-2v-2h16V31z M59,91H41
	V66c0-5,4-9,9-9s9,4,9,9V91z M72,91h-9V66c0-7.2-5.8-13-13-13s-13,5.8-13,13v25h-9V17h44V91z M74,13H26c-1.1,0-2-0.9-2-2V9h52v2
	C76,12.1,75.1,13,74,13z M88,91H76V67h6c1.1,0,2-0.9,2-2s-0.9-2-2-2h-6v-4h6c1.1,0,2-0.9,2-2s-0.9-2-2-2h-6v-4h6c1.1,0,2-0.9,2-2
	s-0.9-2-2-2h-6v-4h6c1.1,0,2-0.9,2-2s-0.9-2-2-2h-6v-4h12V91z M90,31H76v-4h16v2C92,30.1,91.1,31,90,31z M50,49
	c6.1,0,11-4.7,11-10.5v-8.9c0-1.1-0.9-2-2-2c-3.8,0-7-2.1-7-4.6c0-1.1-0.9-2-2-2s-2,0.9-2,2c0,2.5-3.2,4.6-7,4.6c-1.1,0-2,0.9-2,2
	v8.9C39,44.3,43.9,49,50,49z M43,31.4c2.9-0.4,5.4-1.7,7-3.5c1.6,1.8,4.1,3.1,7,3.5v7.1c0,3.6-3.1,6.5-7,6.5s-7-2.9-7-6.5V31.4z
	 M56,73.6c0,0.1,0,0.3,0,0.4s0,0.3,0,0.4s-0.1,0.3-0.1,0.4s-0.1,0.2-0.2,0.3c-0.1,0.1-0.1,0.2-0.2,0.3c-0.1,0.1-0.2,0.2-0.3,0.2
	c-0.1,0.1-0.2,0.1-0.3,0.2s-0.2,0.1-0.4,0.1c-0.1,0-0.3,0-0.4,0c-0.5,0-1-0.2-1.4-0.6c-0.1-0.1-0.2-0.2-0.3-0.3
	c-0.1-0.1-0.1-0.2-0.2-0.3c-0.1-0.1-0.1-0.2-0.1-0.4c0-0.1,0-0.3,0-0.4s0-0.3,0-0.4s0.1-0.3,0.1-0.4s0.1-0.2,0.2-0.3
	c0.1-0.1,0.1-0.2,0.2-0.3c0.7-0.8,2.1-0.8,2.8,0c0.1,0.1,0.2,0.2,0.2,0.3c0.1,0.1,0.1,0.2,0.2,0.3C55.9,73.3,55.9,73.5,56,73.6z"/>
</svg>
